HIERARCHY
ROOT mixamorig:Hips
{
	OFFSET -0.000008 104.274872 1.554316
	CHANNELS 6 Xposition Yposition Zposition Xrotation Yrotation Zrotation
	JOINT mixamorig:Spine
	{
		OFFSET -0.000005 10.181595 0.131519
		CHANNELS 6 Xposition Yposition Zposition Xrotation Yrotation Zrotation
		JOINT mixamorig:Spine1
		{
			OFFSET -0.000000 9.893959 -1.470707
			CHANNELS 6 Xposition Yposition Zposition Xrotation Yrotation Zrotation
			JOINT mixamorig:Spine2
			{
				OFFSET -0.000000 9.220757 -1.370641
				CHANNELS 6 Xposition Yposition Zposition Xrotation Yrotation Zrotation
				JOINT mixamorig:Neck
				{
					OFFSET 0.000001 16.740417 -2.049036
					CHANNELS 6 Xposition Yposition Zposition Xrotation Yrotation Zrotation
					JOINT mixamorig:Head
					{
						OFFSET 0.000000 9.617874 1.685006
						CHANNELS 6 Xposition Yposition Zposition Xrotation Yrotation Zrotation
						JOINT mixamorig:HeadTop_End
						{
							OFFSET 0.000002 22.037354 7.501101
							CHANNELS 6 Xposition Yposition Zposition Xrotation Yrotation Zrotation
							End Site
							{
								OFFSET 0.000168 2310.654297 -282.823242
							}
						}
					}
				}
				JOINT mixamorig:RightShoulder
				{
					OFFSET -4.569970 11.014908 -2.160885
					CHANNELS 6 Xposition Yposition Zposition Xrotation Yrotation Zrotation
					JOINT mixamorig:RightArm
					{
						OFFSET -10.592851 -0.524811 -2.232101
						CHANNELS 6 Xposition Yposition Zposition Xrotation Yrotation Zrotation
						JOINT mixamorig:RightForeArm
						{
							OFFSET -27.841511 0.000031 -0.000004
							CHANNELS 6 Xposition Yposition Zposition Xrotation Yrotation Zrotation
							JOINT mixamorig:RightHand
							{
								OFFSET -28.328831 -0.000015 0.000015
								CHANNELS 6 Xposition Yposition Zposition Xrotation Yrotation Zrotation
								JOINT mixamorig:RightHandThumb1
								{
									OFFSET -2.464806 -1.573990 2.681852
									CHANNELS 6 Xposition Yposition Zposition Xrotation Yrotation Zrotation
									JOINT mixamorig:RightHandThumb2
									{
										OFFSET -3.215179 -1.872803 1.924282
										CHANNELS 6 Xposition Yposition Zposition Xrotation Yrotation Zrotation
										JOINT mixamorig:RightHandThumb3
										{
											OFFSET -2.654831 -1.527969 1.512609
											CHANNELS 6 Xposition Yposition Zposition Xrotation Yrotation Zrotation
											JOINT mixamorig:RightHandThumb4
											{
												OFFSET -2.018814 -1.152008 1.108052
												CHANNELS 6 Xposition Yposition Zposition Xrotation Yrotation Zrotation
												End Site
												{
													OFFSET -188.809540 -114.533607 132.431396
												}
											}
										}
									}
								}
								JOINT mixamorig:RightHandIndex1
								{
									OFFSET -9.108284 -0.517868 2.259835
									CHANNELS 6 Xposition Yposition Zposition Xrotation Yrotation Zrotation
									JOINT mixamorig:RightHandIndex2
									{
										OFFSET -3.699989 0.000000 0.001215
										CHANNELS 6 Xposition Yposition Zposition Xrotation Yrotation Zrotation
										JOINT mixamorig:RightHandIndex3
										{
											OFFSET -2.850006 0.000031 -0.000522
											CHANNELS 6 Xposition Yposition Zposition Xrotation Yrotation Zrotation
											JOINT mixamorig:RightHandIndex4
											{
												OFFSET -2.772186 -0.000015 -0.000020
												CHANNELS 6 Xposition Yposition Zposition Xrotation Yrotation Zrotation
												End Site
												{
													OFFSET -277.218445 0.000000 -0.050231
												}
											}
										}
									}
								}
								JOINT mixamorig:RightHandMiddle1
								{
									OFFSET -9.532516 -0.000031 -0.000023
									CHANNELS 6 Xposition Yposition Zposition Xrotation Yrotation Zrotation
									JOINT mixamorig:RightHandMiddle2
									{
										OFFSET -3.700005 -0.000015 0.003713
										CHANNELS 6 Xposition Yposition Zposition Xrotation Yrotation Zrotation
										JOINT mixamorig:RightHandMiddle3
										{
											OFFSET -2.949974 0.000015 -0.002054
											CHANNELS 6 Xposition Yposition Zposition Xrotation Yrotation Zrotation
											JOINT mixamorig:RightHandMiddle4
											{
												OFFSET -2.946640 0.000000 -0.000156
												CHANNELS 6 Xposition Yposition Zposition Xrotation Yrotation Zrotation
												End Site
												{
													OFFSET -294.664337 0.000000 -0.113670
												}
											}
										}
									}
								}
								JOINT mixamorig:RightHandRing1
								{
									OFFSET -9.103600 -0.043076 -1.865134
									CHANNELS 6 Xposition Yposition Zposition Xrotation Yrotation Zrotation
									JOINT mixamorig:RightHandRing2
									{
										OFFSET -3.379288 0.000000 -0.001055
										CHANNELS 6 Xposition Yposition Zposition Xrotation Yrotation Zrotation
										JOINT mixamorig:RightHandRing3
										{
											OFFSET -2.889687 -0.000015 0.000379
											CHANNELS 6 Xposition Yposition Zposition Xrotation Yrotation Zrotation
											JOINT mixamorig:RightHandRing4
											{
												OFFSET -2.638809 -0.000015 0.000941
												CHANNELS 6 Xposition Yposition Zposition Xrotation Yrotation Zrotation
												End Site
												{
													OFFSET -263.880371 0.000000 0.516020
												}
											}
										}
									}
								}
								JOINT mixamorig:RightHandPinky1
								{
									OFFSET -8.076683 -0.486710 -3.806280
									CHANNELS 6 Xposition Yposition Zposition Xrotation Yrotation Zrotation
									JOINT mixamorig:RightHandPinky2
									{
										OFFSET -3.600014 -0.000015 -0.003747
										CHANNELS 6 Xposition Yposition Zposition Xrotation Yrotation Zrotation
										JOINT mixamorig:RightHandPinky3
										{
											OFFSET -2.099983 0.000000 -0.005739
											CHANNELS 6 Xposition Yposition Zposition Xrotation Yrotation Zrotation
											JOINT mixamorig:RightHandPinky4
											{
												OFFSET -2.115768 -0.000031 -0.003680
												CHANNELS 6 Xposition Yposition Zposition Xrotation Yrotation Zrotation
												End Site
												{
													OFFSET -211.577087 0.000000 -0.350686
												}
											}
										}
									}
								}
							}
						}
					}
				}
				JOINT mixamorig:LeftShoulder
				{
					OFFSET 4.570447 11.014725 -2.160855
					CHANNELS 6 Xposition Yposition Zposition Xrotation Yrotation Zrotation
					JOINT mixamorig:LeftArm
					{
						OFFSET 10.592371 -0.524597 -2.232119
						CHANNELS 6 Xposition Yposition Zposition Xrotation Yrotation Zrotation
						JOINT mixamorig:LeftForeArm
						{
							OFFSET 27.841532 -0.000031 0.000026
							CHANNELS 6 Xposition Yposition Zposition Xrotation Yrotation Zrotation
							JOINT mixamorig:LeftHand
							{
								OFFSET 28.328846 -0.000061 0.000022
								CHANNELS 6 Xposition Yposition Zposition Xrotation Yrotation Zrotation
								JOINT mixamorig:LeftHandThumb1
								{
									OFFSET 2.466141 -1.576172 2.681732
									CHANNELS 6 Xposition Yposition Zposition Xrotation Yrotation Zrotation
									JOINT mixamorig:LeftHandThumb2
									{
										OFFSET 3.217812 -1.872070 1.916482
										CHANNELS 6 Xposition Yposition Zposition Xrotation Yrotation Zrotation
										JOINT mixamorig:LeftHandThumb3
										{
											OFFSET 2.656029 -1.528778 1.514513
											CHANNELS 6 Xposition Yposition Zposition Xrotation Yrotation Zrotation
											JOINT mixamorig:LeftHandThumb4
											{
												OFFSET 2.020889 -1.154053 1.115139
												CHANNELS 6 Xposition Yposition Zposition Xrotation Yrotation Zrotation
												End Site
												{
													OFFSET 190.885437 -115.081749 130.048782
												}
											}
										}
									}
								}
								JOINT mixamorig:LeftHandIndex1
								{
									OFFSET 9.109314 -0.518021 2.259871
									CHANNELS 6 Xposition Yposition Zposition Xrotation Yrotation Zrotation
									JOINT mixamorig:LeftHandIndex2
									{
										OFFSET 3.699989 0.000000 -0.000322
										CHANNELS 6 Xposition Yposition Zposition Xrotation Yrotation Zrotation
										JOINT mixamorig:LeftHandIndex3
										{
											OFFSET 2.850006 0.000000 0.000352
											CHANNELS 6 Xposition Yposition Zposition Xrotation Yrotation Zrotation
											JOINT mixamorig:LeftHandIndex4
											{
												OFFSET 2.774864 -0.000031 -0.000027
												CHANNELS 6 Xposition Yposition Zposition Xrotation Yrotation Zrotation
												End Site
												{
													OFFSET 277.486267 0.000000 -0.009857
												}
											}
										}
									}
								}
								JOINT mixamorig:LeftHandMiddle1
								{
									OFFSET 9.533394 0.000061 0.000044
									CHANNELS 6 Xposition Yposition Zposition Xrotation Yrotation Zrotation
									JOINT mixamorig:LeftHandMiddle2
									{
										OFFSET 3.699989 -0.000015 -0.000231
										CHANNELS 6 Xposition Yposition Zposition Xrotation Yrotation Zrotation
										JOINT mixamorig:LeftHandMiddle3
										{
											OFFSET 2.949997 -0.000015 -0.000059
											CHANNELS 6 Xposition Yposition Zposition Xrotation Yrotation Zrotation
											JOINT mixamorig:LeftHandMiddle4
											{
												OFFSET 2.952896 0.000031 0.000063
												CHANNELS 6 Xposition Yposition Zposition Xrotation Yrotation Zrotation
												End Site
												{
													OFFSET 295.289337 0.000000 0.022810
												}
											}
										}
									}
								}
								JOINT mixamorig:LeftHandRing1
								{
									OFFSET 9.104523 -0.042999 -1.865074
									CHANNELS 6 Xposition Yposition Zposition Xrotation Yrotation Zrotation
									JOINT mixamorig:LeftHandRing2
									{
										OFFSET 3.150009 -0.000031 0.000043
										CHANNELS 6 Xposition Yposition Zposition Xrotation Yrotation Zrotation
										JOINT mixamorig:LeftHandRing3
										{
											OFFSET 2.949982 -0.000015 0.000040
											CHANNELS 6 Xposition Yposition Zposition Xrotation Yrotation Zrotation
											JOINT mixamorig:LeftHandRing4
											{
												OFFSET 2.644348 0.000000 0.000057
												CHANNELS 6 Xposition Yposition Zposition Xrotation Yrotation Zrotation
												End Site
												{
													OFFSET 264.434631 0.000000 0.012105
												}
											}
										}
									}
								}
								JOINT mixamorig:LeftHandPinky1
								{
									OFFSET 8.077789 -0.486847 -3.806259
									CHANNELS 6 Xposition Yposition Zposition Xrotation Yrotation Zrotation
									JOINT mixamorig:LeftHandPinky2
									{
										OFFSET 3.599953 0.000031 0.014727
										CHANNELS 6 Xposition Yposition Zposition Xrotation Yrotation Zrotation
										JOINT mixamorig:LeftHandPinky3
										{
											OFFSET 2.100021 0.000015 0.007705
											CHANNELS 6 Xposition Yposition Zposition Xrotation Yrotation Zrotation
											JOINT mixamorig:LeftHandPinky4
											{
												OFFSET 2.125504 0.000031 0.007517
												CHANNELS 6 Xposition Yposition Zposition Xrotation Yrotation Zrotation
												End Site
												{
													OFFSET 212.550781 0.000000 0.625752
												}
											}
										}
									}
								}
							}
						}
					}
				}
			}
		}
	}
	JOINT mixamorig:RightUpLeg
	{
		OFFSET -8.207787 -6.751648 -1.599560
		CHANNELS 6 Xposition Yposition Zposition Xrotation Yrotation Zrotation
		JOINT mixamorig:RightLeg
		{
			OFFSET -0.000002 -44.370117 0.345942
			CHANNELS 6 Xposition Yposition Zposition Xrotation Yrotation Zrotation
			JOINT mixamorig:RightFoot
			{
				OFFSET 0.000003 -44.423679 -3.043532
				CHANNELS 6 Xposition Yposition Zposition Xrotation Yrotation Zrotation
				JOINT mixamorig:RightToeBase
				{
					OFFSET -0.000002 -8.728671 10.710558
					CHANNELS 6 Xposition Yposition Zposition Xrotation Yrotation Zrotation
					JOINT mixamorig:RightToe_End
					{
						OFFSET -0.000001 -0.000679 9.278119
						CHANNELS 6 Xposition Yposition Zposition Xrotation Yrotation Zrotation
						End Site
						{
							OFFSET 0.000000 -0.067690 927.812134
						}
					}
				}
			}
		}
	}
	JOINT mixamorig:LeftUpLeg
	{
		OFFSET 8.207793 -6.751686 -1.599556
		CHANNELS 6 Xposition Yposition Zposition Xrotation Yrotation Zrotation
		JOINT mixamorig:LeftLeg
		{
			OFFSET -0.000004 -44.370014 0.346954
			CHANNELS 6 Xposition Yposition Zposition Xrotation Yrotation Zrotation
			JOINT mixamorig:LeftFoot
			{
				OFFSET -0.000001 -44.423672 -3.044401
				CHANNELS 6 Xposition Yposition Zposition Xrotation Yrotation Zrotation
				JOINT mixamorig:LeftToeBase
				{
					OFFSET -0.000002 -8.728669 10.710558
					CHANNELS 6 Xposition Yposition Zposition Xrotation Yrotation Zrotation
					JOINT mixamorig:LeftToe_End
					{
						OFFSET -0.000003 -0.000679 9.278133
						CHANNELS 6 Xposition Yposition Zposition Xrotation Yrotation Zrotation
						End Site
						{
							OFFSET 0.000000 -0.068021 927.813477
						}
					}
				}
			}
		}
	}
}
MOTION
Frames: 3
Frame Time: 0.033333
0.000006 104.270477 1.554256 0.000010 0.000003 -0.000113 -0.000005 10.181587 0.131522 0.000001 -0.000003 0.000084 -0.000000 9.893967 -1.470711 0.000001 0.000000 -0.000000 -0.000000 9.220802 -1.370642 0.000000 -0.000000 -0.000000 0.000001 16.740433 -2.049030 0.000000 -0.000000 -0.000000 0.000000 9.617859 1.685014 0.000000 0.000000 0.000000 0.000002 22.037384 7.501101 0.000000 -0.000000 0.000000 -4.569968 11.014880 -2.160881 0.000008 0.000001 -0.000038 -10.592875 -0.524758 -2.231905 76.117090 28.335303 -22.359960 -27.841518 0.000013 0.000537 -53.614243 110.943849 72.589577 -28.328819 0.000020 0.000024 -0.000318 -0.000043 0.000006 -2.464441 -1.573848 2.682367 -39.439336 -160.599522 10.296130 -3.215289 -1.872600 1.924675 157.348748 31.506587 1.360759 -2.654953 -1.527910 1.513101 148.885269 25.940001 -42.496197 -2.018815 -1.152011 1.108060 -0.000008 0.000000 0.000004 -9.108383 -0.517547 2.260106 96.921682 16.505900 -18.648395 -3.700076 0.000323 0.001488 95.207537 13.753918 -15.024219 -2.850070 0.000372 -0.000261 94.293528 10.688367 -11.514510 -2.772173 0.000000 -0.000018 0.000001 -0.000000 0.000001 -9.532588 0.000287 0.000228 90.215495 14.243924 -14.437381 -3.700063 0.000320 0.003949 88.901264 11.611120 -11.299643 -2.950053 0.000342 -0.001836 89.465704 11.128240 -11.018587 -2.946634 0.000014 -0.000155 -0.000002 -0.000001 0.000001 -9.103695 -0.042748 -1.864883 88.844833 16.097465 -15.736863 -3.379340 0.000311 -0.000833 88.341762 9.334689 -9.086282 -2.889746 0.000342 0.000618 92.098824 6.432004 -6.718397 -2.638831 -0.000017 0.000938 0.000001 -0.000001 -0.000003 -8.076755 -0.486383 -3.806057 81.142483 15.129986 -12.847406 -3.600045 0.000278 -0.003564 81.946834 6.301988 -5.174345 -2.100011 0.000308 -0.005530 84.616393 3.665034 -3.142039 -2.115780 -0.000026 -0.003684 0.000002 0.000001 -0.000005 4.570446 11.014691 -2.160851 -0.000018 0.000010 -0.000021 10.592387 -0.524486 -2.232341 73.448316 -7.680447 5.733770 27.841812 0.000066 -0.000209 93.049825 -69.715235 72.602773 28.328825 -0.000029 0.000024 0.000021 -0.000089 -0.000000 2.466266 -1.575990 2.681815 -166.092784 4.383911 64.114726 3.217858 -1.871830 1.916413 167.760374 -21.623506 38.260148 2.656099 -1.528703 1.514503 139.016097 -27.577181 60.368388 2.020890 -1.154086 1.115139 0.000006 0.000005 0.000006 9.109388 -0.517894 2.259739 75.361159 -20.416730 15.826052 3.700055 0.000125 -0.000444 73.645606 -17.814376 13.398758 2.850050 0.000133 0.000221 69.305950 -14.375924 9.963244 2.774883 -0.000029 -0.000022 -0.000001 0.000002 -0.000002 9.533474 0.000172 -0.000089 74.827755 -18.422379 14.135411 3.700036 0.000147 -0.000373 78.551007 -13.871457 11.359860 2.950049 0.000126 -0.000188 77.510872 -16.336962 13.148438 2.952872 -0.000014 0.000061 -0.000002 -0.000002 0.000000 9.104595 -0.042884 -1.865226 73.207655 -17.399823 12.970140 3.150064 0.000166 -0.000099 77.868774 -13.558880 10.973344 2.950020 0.000147 -0.000076 78.997804 -14.109294 11.650691 2.644318 0.000033 0.000054 0.000000 -0.000001 -0.000000 8.077851 -0.486768 -3.806393 64.685238 -18.703414 12.300858 3.599983 0.000142 0.014584 65.952648 -16.339138 10.994421 2.100043 0.000116 0.007555 68.022551 -14.680356 10.278549 2.125515 0.000001 0.007517 0.000000 -0.000004 -0.000001 -8.207786 -6.751667 -1.599560 -0.077001 -0.000003 0.000080 -0.000002 -44.370110 0.345938 0.153719 -0.000000 -0.000000 0.000000 -44.423679 -3.043532 -0.076700 0.000000 -0.000002 -0.000006 -8.728667 10.710559 -0.000009 -0.000000 -0.000000 -0.000001 -0.000679 9.278123 0.000000 -0.000000 -0.000000 8.207792 -6.751710 -1.599556 -0.074518 -0.000003 0.000081 -0.000002 -44.370014 0.346960 0.148822 0.000002 0.000000 -0.000001 -44.423664 -3.044403 -0.074314 0.000000 -0.000002 -0.000004 -8.728671 10.710558 0.000007 -0.000000 -0.000000 0.000000 -0.000680 9.278137 -0.000000 0.000000 -0.000001 
0.000006 104.270477 1.554256 0.000010 0.000003 -0.000113 -0.000005 10.181587 0.131522 0.000001 -0.000003 0.000084 -0.000000 9.893967 -1.470711 0.000001 0.000000 -0.000000 -0.000000 9.220802 -1.370642 0.000000 -0.000000 -0.000000 0.000001 16.740433 -2.049030 0.000000 -0.000000 -0.000000 0.000000 9.617859 1.685014 0.000000 0.000000 0.000000 0.000002 22.037384 7.501101 0.000000 -0.000000 0.000000 -4.569968 11.014880 -2.160881 0.000008 0.000001 -0.000038 -10.592877 -0.524753 -2.231914 77.017220 26.629181 -21.328432 -27.841520 -0.000002 0.000547 -50.028492 109.379537 66.751152 -28.328821 0.000022 0.000022 -0.000325 -0.000045 0.000007 -2.464405 -1.573781 2.682328 -47.333665 -161.750259 -8.675161 -3.215261 -1.872557 1.924641 151.820748 32.728388 14.163076 -2.654969 -1.527854 1.513068 147.082004 27.204165 -34.023665 -2.018842 -1.152002 1.108060 0.000000 -0.000004 0.000005 -9.108379 -0.517538 2.260120 97.813227 16.289757 -18.691673 -3.700065 0.000311 0.001503 94.568265 13.639986 -14.735734 -2.850087 0.000366 -0.000279 92.638095 11.162762 -11.684407 -2.772155 -0.000016 -0.000024 -0.000002 0.000000 -0.000000 -9.532579 0.000273 0.000228 90.032098 16.128935 -16.280410 -3.700071 0.000323 0.003963 90.462953 11.941764 -11.942682 -2.950084 0.000327 -0.001819 92.313893 11.418024 -11.878034 -2.946624 0.000011 -0.000153 -0.000005 -0.000001 -0.000000 -9.103704 -0.042763 -1.864892 88.265442 17.994002 -17.422013 -3.379332 0.000309 -0.000835 88.971478 8.999968 -8.857386 -2.889757 0.000357 0.000605 95.211628 6.236719 -6.879508 -2.638800 -0.000017 0.000940 0.000002 -0.000001 -0.000001 -8.076748 -0.486395 -3.806039 81.457662 18.871514 -16.153563 -3.600040 0.000276 -0.003549 82.684767 7.838172 -6.588149 -2.100007 0.000328 -0.005530 86.087759 3.711107 -3.266934 -2.115786 -0.000029 -0.003677 0.000003 0.000000 -0.000005 4.570446 11.014691 -2.160851 -0.000018 0.000010 -0.000021 10.592371 -0.524502 -2.232315 73.913944 -0.676947 0.509409 27.841814 0.000081 -0.000235 93.983874 -70.866115 74.673577 28.328840 -0.000028 0.000029 0.000022 -0.000089 -0.000000 2.466230 -1.575861 2.681783 -164.905519 -13.823554 38.158160 3.217883 -1.871910 1.916465 164.849525 -15.902074 59.658697 2.656116 -1.528691 1.514513 140.564856 -26.691920 65.487048 2.020887 -1.154048 1.115155 -0.000003 0.000003 0.000004 9.109377 -0.517899 2.259748 75.765936 -21.288689 16.627636 3.700031 0.000124 -0.000458 73.347906 -13.231378 9.885341 2.850042 0.000156 0.000206 72.325611 -9.597497 7.021458 2.774879 -0.000032 -0.000026 0.000002 -0.000004 0.000000 9.533462 0.000172 -0.000080 75.474950 -19.621520 15.238108 3.700038 0.000154 -0.000365 78.156516 -10.627705 8.636492 2.950036 0.000142 -0.000215 77.799434 -10.267350 8.294683 2.952853 -0.000029 0.000065 -0.000001 -0.000002 -0.000001 9.104579 -0.042882 -1.865209 75.659802 -18.906420 14.735662 3.150033 0.000156 -0.000106 79.009040 -12.323634 10.174513 2.949987 0.000162 -0.000076 78.623708 -10.099493 8.278304 2.644345 0.000044 0.000055 0.000002 -0.000003 0.000001 8.077833 -0.486774 -3.806379 66.328985 -20.127972 13.642999 3.599981 0.000142 0.014587 65.832485 -16.717016 11.218587 2.100030 0.000137 0.007548 67.321985 -12.666701 8.784461 2.125510 0.000002 0.007517 0.000003 -0.000001 -0.000006 -8.207786 -6.751667 -1.599560 -0.077001 -0.000003 0.000080 -0.000002 -44.370110 0.345938 0.153719 -0.000000 -0.000000 0.000000 -44.423679 -3.043532 -0.076700 0.000000 -0.000002 -0.000006 -8.728667 10.710559 -0.000009 -0.000000 -0.000000 -0.000001 -0.000679 9.278123 0.000000 -0.000000 -0.000000 8.207792 -6.751710 -1.599556 -0.074518 -0.000003 0.000081 -0.000002 -44.370014 0.346960 0.148822 0.000002 0.000000 -0.000001 -44.423664 -3.044403 -0.074314 0.000000 -0.000002 -0.000004 -8.728671 10.710558 0.000007 -0.000000 -0.000000 0.000000 -0.000680 9.278137 -0.000000 0.000000 -0.000001 
0.000006 104.270477 1.554256 0.000010 0.000003 -0.000113 -0.000005 10.181587 0.131522 0.000001 -0.000003 0.000084 -0.000000 9.893967 -1.470711 0.000001 0.000000 -0.000000 -0.000000 9.220802 -1.370642 0.000000 -0.000000 -0.000000 0.000001 16.740433 -2.049030 0.000000 -0.000000 -0.000000 0.000000 9.617859 1.685014 0.000000 0.000000 0.000000 0.000002 22.037384 7.501101 0.000000 -0.000000 0.000000 -4.569968 11.014880 -2.160881 0.000008 0.000001 -0.000038 -10.592873 -0.524778 -2.231874 76.963535 33.319254 -26.761245 -27.841511 0.000018 0.000566 -49.081927 106.905329 63.264497 -28.328804 0.000009 0.000033 -0.000324 -0.000045 0.000009 -2.464415 -1.573795 2.682324 -46.883098 -161.800064 -7.542505 -3.215268 -1.872546 1.924632 152.678716 32.850126 13.796566 -2.654957 -1.527890 1.513075 148.231388 27.003189 -34.037903 -2.018837 -1.152014 1.108054 -0.000004 -0.000003 0.000000 -9.108385 -0.517563 2.260107 97.241786 16.452843 -18.691919 -3.700061 0.000325 0.001495 94.327624 13.325273 -14.335889 -2.850049 0.000362 -0.000271 92.219363 10.753455 -11.174680 -2.772162 -0.000015 -0.000018 -0.000002 0.000001 -0.000001 -9.532585 0.000271 0.000214 89.575595 15.633149 -15.659986 -3.700067 0.000310 0.003954 90.063667 10.790500 -10.709083 -2.950042 0.000347 -0.001838 91.890162 10.754996 -11.106290 -2.946634 0.000004 -0.000152 -0.000004 0.000001 0.000000 -9.103703 -0.042758 -1.864884 88.507169 17.501648 -17.014490 -3.379305 0.000319 -0.000842 88.353695 7.376601 -7.184559 -2.889752 0.000360 0.000611 94.900841 5.001981 -5.496846 -2.638798 -0.000014 0.000942 0.000000 0.000000 0.000002 -8.076756 -0.486391 -3.806047 82.540780 18.458711 -16.096794 -3.600023 0.000281 -0.003548 82.582547 6.513990 -5.417984 -2.099986 0.000325 -0.005521 85.702331 2.616217 -2.232529 -2.115776 -0.000055 -0.003677 0.000000 -0.000005 -0.000003 4.570446 11.014691 -2.160851 -0.000018 0.000010 -0.000021 10.592396 -0.524477 -2.232360 73.775011 -11.470008 8.620681 27.841822 0.000064 -0.000206 94.566039 -73.514282 77.942997 28.328825 -0.000029 0.000024 0.000023 -0.000089 -0.000000 2.466218 -1.575862 2.681772 -164.005997 -19.302994 29.144680 3.217873 -1.871927 1.916480 161.079616 -15.439424 67.024394 2.656108 -1.528702 1.514513 137.847329 -27.892899 65.880829 2.020898 -1.154066 1.115139 0.000001 0.000002 0.000003 9.109370 -0.517901 2.259740 74.916636 -21.204344 16.312713 3.700032 0.000139 -0.000461 74.044121 -13.982779 10.580879 2.850036 0.000151 0.000213 73.610970 -10.670039 7.993008 2.774873 -0.000015 -0.000026 -0.000000 0.000002 -0.000001 9.533462 0.000168 -0.000086 74.951798 -19.486992 14.992171 3.700037 0.000146 -0.000368 77.974512 -10.782596 8.734340 2.950048 0.000138 -0.000190 78.984683 -9.989550 8.241562 2.952857 -0.000014 0.000058 -0.000000 -0.000001 0.000000 9.104588 -0.042873 -1.865215 74.767239 -19.188879 14.720989 3.150039 0.000171 -0.000111 78.079103 -12.547659 10.190668 2.950007 0.000164 -0.000085 79.034264 -9.625011 7.946468 2.644314 0.000032 0.000058 0.000001 0.000001 0.000001 8.077834 -0.486748 -3.806396 64.790088 -19.972892 13.150414 3.600007 0.000133 0.014579 64.707901 -16.674071 10.953256 2.100018 0.000136 0.007545 67.797428 -12.430984 8.702696 2.125519 -0.000018 0.007511 0.000002 -0.000003 0.000000 -8.207786 -6.751667 -1.599560 -0.077001 -0.000003 0.000080 -0.000002 -44.370110 0.345938 0.153719 -0.000000 -0.000000 0.000000 -44.423679 -3.043532 -0.076700 0.000000 -0.000002 -0.000006 -8.728667 10.710559 -0.000009 -0.000000 -0.000000 -0.000001 -0.000679 9.278123 0.000000 -0.000000 -0.000000 8.207792 -6.751710 -1.599556 -0.074518 -0.000003 0.000081 -0.000002 -44.370014 0.346960 0.148822 0.000002 0.000000 -0.000001 -44.423664 -3.044403 -0.074314 0.000000 -0.000002 -0.000004 -8.728671 10.710558 0.000007 -0.000000 -0.000000 0.000000 -0.000680 9.278137 -0.000000 0.000000 -0.000001 
